<svg xmlns="http://www.w3.org/2000/svg" xmlns:xlink="http://www.w3.org/1999/xlink" zoomAndPan="magnify" preserveAspectRatio="xMidYMid meet" version="1.0" viewBox="113.8 166.34 148.05 39.63"><defs><g/></defs><g fill="#fafafa" fill-opacity="1"><g transform="translate(112.615493, 190.388762)"><g><path d="M 1.1875 -23.8125 L 13.546875 -23.8125 C 14.148438 -23.8125 14.722656 -23.726562 15.265625 -23.5625 C 15.816406 -23.394531 16.265625 -23.117188 16.609375 -22.734375 C 16.953125 -22.359375 17.125 -21.84375 17.125 -21.1875 C 17.125 -20.394531 16.914062 -19.726562 16.5 -19.1875 C 16.09375 -18.65625 15.566406 -18.203125 14.921875 -17.828125 C 14.273438 -17.460938 13.585938 -17.160156 12.859375 -16.921875 C 12.128906 -16.691406 11.441406 -16.484375 10.796875 -16.296875 C 10.148438 -16.117188 9.617188 -15.9375 9.203125 -15.75 C 8.796875 -15.570312 8.59375 -15.363281 8.59375 -15.125 C 8.59375 -14.738281 8.769531 -14.414062 9.125 -14.15625 C 9.488281 -13.90625 9.96875 -13.675781 10.5625 -13.46875 C 11.15625 -13.269531 11.804688 -13.054688 12.515625 -12.828125 C 13.222656 -12.597656 13.925781 -12.3125 14.625 -11.96875 C 15.332031 -11.625 15.984375 -11.191406 16.578125 -10.671875 C 17.179688 -10.160156 17.660156 -9.515625 18.015625 -8.734375 C 18.367188 -7.960938 18.546875 -7.019531 18.546875 -5.90625 C 18.546875 -5.050781 18.367188 -4.257812 18.015625 -3.53125 C 17.660156 -2.8125 17.175781 -2.1875 16.5625 -1.65625 C 15.945312 -1.132812 15.242188 -0.726562 14.453125 -0.4375 C 13.671875 -0.144531 12.851562 0 12 0 L 1.1875 0 Z M 4.640625 -3.328125 L 13.359375 -3.328125 C 14.273438 -3.328125 15.097656 -3.414062 15.828125 -3.59375 C 16.566406 -3.769531 17.144531 -4.0625 17.5625 -4.46875 C 17.976562 -4.882812 18.1875 -5.4375 18.1875 -6.125 C 18.1875 -6.789062 17.96875 -7.328125 17.53125 -7.734375 C 17.101562 -8.148438 16.53125 -8.476562 15.8125 -8.71875 C 15.09375 -8.957031 14.304688 -9.160156 13.453125 -9.328125 C 12.597656 -9.492188 11.738281 -9.664062 10.875 -9.84375 C 10.007812 -10.03125 9.21875 -10.257812 8.5 -10.53125 C 7.78125 -10.800781 7.203125 -11.15625 6.765625 -11.59375 C 6.335938 -12.039062 6.125 -12.628906 6.125 -13.359375 C 6.125 -13.867188 6.300781 -14.289062 6.65625 -14.625 C 7.007812 -14.96875 7.472656 -15.269531 8.046875 -15.53125 C 8.617188 -15.800781 9.21875 -16.066406 9.84375 -16.328125 C 10.46875 -16.597656 11.066406 -16.914062 11.640625 -17.28125 C 12.210938 -17.644531 12.675781 -18.101562 13.03125 -18.65625 C 13.394531 -19.21875 13.578125 -19.910156 13.578125 -20.734375 C 13.578125 -21.484375 13.363281 -22.050781 12.9375 -22.4375 C 12.519531 -22.832031 11.945312 -23.097656 11.21875 -23.234375 C 10.5 -23.378906 9.695312 -23.453125 8.8125 -23.453125 L 4.640625 -23.453125 Z M 4.640625 -3.328125 "/></g></g></g><g fill="#fafafa" fill-opacity="1"><g transform="translate(131.989475, 190.388762)"><g><path d="M 10.359375 0.234375 C 8.472656 0.234375 6.820312 -0.269531 5.40625 -1.28125 C 3.988281 -2.300781 2.890625 -3.71875 2.109375 -5.53125 C 1.335938 -7.351562 0.953125 -9.476562 0.953125 -11.90625 C 0.953125 -14.332031 1.335938 -16.453125 2.109375 -18.265625 C 2.890625 -20.085938 3.988281 -21.503906 5.40625 -22.515625 C 6.820312 -23.535156 8.472656 -24.046875 10.359375 -24.046875 C 11.773438 -24.046875 13.054688 -23.753906 14.203125 -23.171875 C 15.359375 -22.597656 16.351562 -21.773438 17.1875 -20.703125 C 18.019531 -19.628906 18.65625 -18.347656 19.09375 -16.859375 C 19.539062 -15.378906 19.765625 -13.726562 19.765625 -11.90625 C 19.765625 -10.082031 19.539062 -8.425781 19.09375 -6.9375 C 18.65625 -5.457031 18.019531 -4.179688 17.1875 -3.109375 C 16.351562 -2.035156 15.359375 -1.207031 14.203125 -0.625 C 13.054688 -0.0507812 11.773438 0.234375 10.359375 0.234375 Z M 4.671875 -11.9375 C 4.671875 -9.5625 4.90625 -7.488281 5.375 -5.71875 C 5.84375 -3.957031 6.503906 -2.582031 7.359375 -1.59375 C 8.210938 -0.613281 9.203125 -0.125 10.328125 -0.125 C 11.472656 -0.125 12.472656 -0.613281 13.328125 -1.59375 C 14.191406 -2.582031 14.859375 -3.957031 15.328125 -5.71875 C 15.804688 -7.488281 16.046875 -9.5625 16.046875 -11.9375 C 16.046875 -14.300781 15.804688 -16.363281 15.328125 -18.125 C 14.859375 -19.882812 14.191406 -21.253906 13.328125 -22.234375 C 12.472656 -23.222656 11.472656 -23.71875 10.328125 -23.71875 C 9.203125 -23.71875 8.210938 -23.222656 7.359375 -22.234375 C 6.503906 -21.253906 5.84375 -19.882812 5.375 -18.125 C 4.90625 -16.363281 4.671875 -14.300781 4.671875 -11.9375 Z M 4.671875 -11.9375 "/></g></g></g><g fill="#fafafa" fill-opacity="1"><g transform="translate(153.053326, 190.388762)"><g><path d="M 5.125 0 L 1.671875 0 L 1.671875 -23.8125 L 13.734375 -23.8125 C 14.609375 -23.8125 15.328125 -23.601562 15.890625 -23.1875 C 16.453125 -22.78125 16.875 -22.257812 17.15625 -21.625 C 17.445312 -21 17.59375 -20.363281 17.59375 -19.71875 C 17.59375 -18.757812 17.398438 -17.941406 17.015625 -17.265625 C 16.640625 -16.597656 16.15625 -16.03125 15.5625 -15.5625 C 14.96875 -15.09375 14.332031 -14.703125 13.65625 -14.390625 C 12.976562 -14.085938 12.34375 -13.816406 11.75 -13.578125 C 11.15625 -13.347656 10.664062 -13.132812 10.28125 -12.9375 C 9.90625 -12.738281 9.71875 -12.519531 9.71875 -12.28125 C 9.71875 -12.050781 9.847656 -11.660156 10.109375 -11.109375 C 10.367188 -10.554688 10.722656 -9.90625 11.171875 -9.15625 C 11.628906 -8.414062 12.132812 -7.632812 12.6875 -6.8125 C 13.25 -6 13.828125 -5.195312 14.421875 -4.40625 C 15.015625 -3.613281 15.582031 -2.894531 16.125 -2.25 C 16.675781 -1.601562 17.171875 -1.085938 17.609375 -0.703125 C 18.054688 -0.328125 18.398438 -0.140625 18.640625 -0.140625 L 18.640625 0 L 14.71875 0 C 14.257812 0 13.90625 -0.0351562 13.65625 -0.109375 C 13.40625 -0.191406 13.171875 -0.359375 12.953125 -0.609375 C 12.734375 -0.867188 12.414062 -1.269531 12 -1.8125 C 11.601562 -2.332031 11.175781 -2.921875 10.71875 -3.578125 C 10.257812 -4.242188 9.804688 -4.925781 9.359375 -5.625 C 8.910156 -6.320312 8.503906 -6.992188 8.140625 -7.640625 C 7.773438 -8.296875 7.484375 -8.890625 7.265625 -9.421875 C 7.054688 -9.953125 6.953125 -10.367188 6.953125 -10.671875 C 6.953125 -11.046875 7.125 -11.382812 7.46875 -11.6875 C 7.820312 -11.988281 8.269531 -12.289062 8.8125 -12.59375 C 9.351562 -12.894531 9.929688 -13.234375 10.546875 -13.609375 C 11.171875 -13.984375 11.75 -14.425781 12.28125 -14.9375 C 12.820312 -15.457031 13.265625 -16.085938 13.609375 -16.828125 C 13.960938 -17.578125 14.140625 -18.46875 14.140625 -19.5 C 14.140625 -20.25 14.007812 -20.921875 13.75 -21.515625 C 13.488281 -22.109375 13.066406 -22.578125 12.484375 -22.921875 C 11.910156 -23.273438 11.15625 -23.453125 10.21875 -23.453125 L 5.125 -23.453125 Z M 5.125 0 "/></g></g></g><g fill="#fafafa" fill-opacity="1"><g transform="translate(172.046494, 190.388762)"><g><path d="M 10.984375 0.234375 C 9.328125 0.234375 7.867188 -0.0976562 6.609375 -0.765625 C 5.359375 -1.441406 4.3125 -2.363281 3.46875 -3.53125 C 2.632812 -4.695312 2.003906 -6.023438 1.578125 -7.515625 C 1.160156 -9.015625 0.953125 -10.582031 0.953125 -12.21875 C 0.953125 -13.914062 1.195312 -15.484375 1.6875 -16.921875 C 2.175781 -18.359375 2.894531 -19.609375 3.84375 -20.671875 C 4.789062 -21.742188 5.929688 -22.570312 7.265625 -23.15625 C 8.609375 -23.75 10.125 -24.046875 11.8125 -24.046875 C 12.632812 -24.046875 13.429688 -23.925781 14.203125 -23.6875 C 14.972656 -23.457031 15.660156 -23.148438 16.265625 -22.765625 C 16.867188 -22.378906 17.3125 -21.96875 17.59375 -21.53125 L 15.265625 -18.734375 C 14.328125 -19.847656 13.210938 -20.742188 11.921875 -21.421875 C 10.640625 -22.097656 9.328125 -22.4375 7.984375 -22.4375 C 6.898438 -22.4375 5.972656 -22.101562 5.203125 -21.4375 C 4.429688 -20.769531 3.84375 -19.851562 3.4375 -18.6875 C 3.03125 -17.519531 2.828125 -16.171875 2.828125 -14.640625 C 2.828125 -13.128906 3.003906 -11.691406 3.359375 -10.328125 C 3.722656 -8.960938 4.257812 -7.753906 4.96875 -6.703125 C 5.6875 -5.648438 6.566406 -4.816406 7.609375 -4.203125 C 8.648438 -3.585938 9.84375 -3.28125 11.1875 -3.28125 C 12.1875 -3.28125 13.023438 -3.40625 13.703125 -3.65625 C 14.378906 -3.90625 14.910156 -4.179688 15.296875 -4.484375 C 15.691406 -4.796875 15.972656 -5.070312 16.140625 -5.3125 C 16.304688 -5.5625 16.390625 -5.6875 16.390625 -5.6875 L 18.28125 -2.640625 C 18.28125 -2.640625 18.132812 -2.492188 17.84375 -2.203125 C 17.550781 -1.910156 17.101562 -1.578125 16.5 -1.203125 C 15.894531 -0.828125 15.128906 -0.492188 14.203125 -0.203125 C 13.285156 0.0859375 12.210938 0.234375 10.984375 0.234375 Z M 10.984375 0.234375 "/></g></g></g><g fill="#fafafa" fill-opacity="1"><g transform="translate(191.039662, 190.388762)"><g><path d="M 0.953125 -8 C 0.953125 -9.019531 1.203125 -9.863281 1.703125 -10.53125 C 2.210938 -11.195312 2.898438 -11.695312 3.765625 -12.03125 C 4.640625 -12.363281 5.613281 -12.53125 6.6875 -12.53125 C 7.476562 -12.53125 8.195312 -12.445312 8.84375 -12.28125 C 9.488281 -12.113281 10.085938 -11.914062 10.640625 -11.6875 C 11.203125 -11.46875 11.742188 -11.273438 12.265625 -11.109375 C 12.785156 -10.941406 13.320312 -10.859375 13.875 -10.859375 C 14.144531 -10.859375 14.390625 -10.914062 14.609375 -11.03125 C 14.828125 -11.15625 14.9375 -11.351562 14.9375 -11.625 C 14.9375 -11.96875 14.710938 -12.28125 14.265625 -12.5625 C 13.816406 -12.84375 13.25 -13.085938 12.5625 -13.296875 C 11.882812 -13.515625 11.164062 -13.707031 10.40625 -13.875 C 9.644531 -14.050781 8.945312 -14.21875 8.3125 -14.375 C 7.46875 -14.582031 6.644531 -14.789062 5.84375 -15 C 5.039062 -15.21875 4.3125 -15.5 3.65625 -15.84375 C 3.007812 -16.1875 2.492188 -16.640625 2.109375 -17.203125 C 1.722656 -17.765625 1.53125 -18.484375 1.53125 -19.359375 C 1.53125 -19.640625 1.59375 -19.984375 1.71875 -20.390625 C 1.851562 -20.796875 2.09375 -21.207031 2.4375 -21.625 C 2.78125 -22.050781 3.253906 -22.445312 3.859375 -22.8125 C 4.472656 -23.175781 5.257812 -23.472656 6.21875 -23.703125 C 7.1875 -23.929688 8.351562 -24.046875 9.71875 -24.046875 C 10.332031 -24.046875 11.019531 -24.019531 11.78125 -23.96875 C 12.550781 -23.914062 13.320312 -23.820312 14.09375 -23.6875 C 14.875 -23.5625 15.582031 -23.398438 16.21875 -23.203125 C 16.863281 -23.003906 17.367188 -22.753906 17.734375 -22.453125 L 16.765625 -18.890625 C 16.304688 -19.222656 15.675781 -19.519531 14.875 -19.78125 C 14.070312 -20.050781 13.171875 -20.269531 12.171875 -20.4375 C 11.179688 -20.601562 10.179688 -20.6875 9.171875 -20.6875 C 7.441406 -20.6875 6.179688 -20.476562 5.390625 -20.0625 C 4.609375 -19.65625 4.21875 -19.03125 4.21875 -18.1875 C 4.21875 -17.539062 4.441406 -17.003906 4.890625 -16.578125 C 5.347656 -16.160156 5.941406 -15.804688 6.671875 -15.515625 C 7.410156 -15.234375 8.222656 -14.984375 9.109375 -14.765625 C 10.003906 -14.554688 10.890625 -14.34375 11.765625 -14.125 C 12.648438 -13.914062 13.460938 -13.664062 14.203125 -13.375 C 14.941406 -13.082031 15.535156 -12.710938 15.984375 -12.265625 C 16.441406 -11.816406 16.671875 -11.253906 16.671875 -10.578125 C 16.671875 -9.984375 16.519531 -9.46875 16.21875 -9.03125 C 15.925781 -8.59375 15.535156 -8.25 15.046875 -8 C 14.566406 -7.757812 14.050781 -7.632812 13.5 -7.625 C 12.625 -7.59375 11.800781 -7.679688 11.03125 -7.890625 C 10.257812 -8.109375 9.519531 -8.363281 8.8125 -8.65625 C 8.113281 -8.945312 7.40625 -9.207031 6.6875 -9.4375 C 5.976562 -9.664062 5.234375 -9.78125 4.453125 -9.78125 C 3.390625 -9.78125 2.609375 -9.601562 2.109375 -9.25 C 1.617188 -8.90625 1.375 -8.425781 1.375 -7.8125 C 1.375 -6.9375 1.664062 -6.203125 2.25 -5.609375 C 2.84375 -5.015625 3.632812 -4.539062 4.625 -4.1875 C 5.625 -3.84375 6.75 -3.59375 8 -3.4375 C 9.25 -3.289062 10.539062 -3.21875 11.875 -3.21875 C 12.875 -3.21875 13.859375 -3.300781 14.828125 -3.46875 C 15.796875 -3.632812 16.6875 -4.054688 17.5 -4.734375 L 16.078125 -0.59375 C 15.441406 -0.289062 14.800781 -0.078125 14.15625 0.046875 C 13.507812 0.171875 12.785156 0.234375 11.984375 0.234375 C 10.546875 0.234375 9.164062 0.0859375 7.84375 -0.203125 C 6.519531 -0.492188 5.34375 -0.960938 4.3125 -1.609375 C 3.28125 -2.253906 2.460938 -3.097656 1.859375 -4.140625 C 1.253906 -5.191406 0.953125 -6.476562 0.953125 -8 Z M 0.953125 -8 "/></g></g></g><g fill="#fafafa" fill-opacity="1"><g transform="translate(209.652023, 190.388762)"><g><path d="M 1.671875 0 L 1.671875 -23.8125 L 5.125 -23.8125 L 5.125 -0.359375 C 6.164062 -0.359375 7.234375 -0.460938 8.328125 -0.671875 C 9.429688 -0.890625 10.484375 -1.171875 11.484375 -1.515625 C 12.492188 -1.859375 13.390625 -2.238281 14.171875 -2.65625 C 14.960938 -3.070312 15.554688 -3.488281 15.953125 -3.90625 L 15.953125 0 Z M 1.671875 0 "/></g></g></g><g fill="#fafafa" fill-opacity="1"><g transform="translate(226.88394, 190.388762)"><g><path d="M 1.671875 0 L 1.671875 -23.8125 L 5.125 -23.8125 L 5.125 -0.359375 C 6.164062 -0.359375 7.234375 -0.460938 8.328125 -0.671875 C 9.429688 -0.890625 10.484375 -1.171875 11.484375 -1.515625 C 12.492188 -1.859375 13.390625 -2.238281 14.171875 -2.65625 C 14.960938 -3.070312 15.554688 -3.488281 15.953125 -3.90625 L 15.953125 0 Z M 1.671875 0 "/></g></g></g><g fill="#fafafa" fill-opacity="1"><g transform="translate(244.115858, 190.388762)"><g><path d="M 0.953125 -8 C 0.953125 -9.019531 1.203125 -9.863281 1.703125 -10.53125 C 2.210938 -11.195312 2.898438 -11.695312 3.765625 -12.03125 C 4.640625 -12.363281 5.613281 -12.53125 6.6875 -12.53125 C 7.476562 -12.53125 8.195312 -12.445312 8.84375 -12.28125 C 9.488281 -12.113281 10.085938 -11.914062 10.640625 -11.6875 C 11.203125 -11.46875 11.742188 -11.273438 12.265625 -11.109375 C 12.785156 -10.941406 13.320312 -10.859375 13.875 -10.859375 C 14.144531 -10.859375 14.390625 -10.914062 14.609375 -11.03125 C 14.828125 -11.15625 14.9375 -11.351562 14.9375 -11.625 C 14.9375 -11.96875 14.710938 -12.28125 14.265625 -12.5625 C 13.816406 -12.84375 13.25 -13.085938 12.5625 -13.296875 C 11.882812 -13.515625 11.164062 -13.707031 10.40625 -13.875 C 9.644531 -14.050781 8.945312 -14.21875 8.3125 -14.375 C 7.46875 -14.582031 6.644531 -14.789062 5.84375 -15 C 5.039062 -15.21875 4.3125 -15.5 3.65625 -15.84375 C 3.007812 -16.1875 2.492188 -16.640625 2.109375 -17.203125 C 1.722656 -17.765625 1.53125 -18.484375 1.53125 -19.359375 C 1.53125 -19.640625 1.59375 -19.984375 1.71875 -20.390625 C 1.851562 -20.796875 2.09375 -21.207031 2.4375 -21.625 C 2.78125 -22.050781 3.253906 -22.445312 3.859375 -22.8125 C 4.472656 -23.175781 5.257812 -23.472656 6.21875 -23.703125 C 7.1875 -23.929688 8.351562 -24.046875 9.71875 -24.046875 C 10.332031 -24.046875 11.019531 -24.019531 11.78125 -23.96875 C 12.550781 -23.914062 13.320312 -23.820312 14.09375 -23.6875 C 14.875 -23.5625 15.582031 -23.398438 16.21875 -23.203125 C 16.863281 -23.003906 17.367188 -22.753906 17.734375 -22.453125 L 16.765625 -18.890625 C 16.304688 -19.222656 15.675781 -19.519531 14.875 -19.78125 C 14.070312 -20.050781 13.171875 -20.269531 12.171875 -20.4375 C 11.179688 -20.601562 10.179688 -20.6875 9.171875 -20.6875 C 7.441406 -20.6875 6.179688 -20.476562 5.390625 -20.0625 C 4.609375 -19.65625 4.21875 -19.03125 4.21875 -18.1875 C 4.21875 -17.539062 4.441406 -17.003906 4.890625 -16.578125 C 5.347656 -16.160156 5.941406 -15.804688 6.671875 -15.515625 C 7.410156 -15.234375 8.222656 -14.984375 9.109375 -14.765625 C 10.003906 -14.554688 10.890625 -14.34375 11.765625 -14.125 C 12.648438 -13.914062 13.460938 -13.664062 14.203125 -13.375 C 14.941406 -13.082031 15.535156 -12.710938 15.984375 -12.265625 C 16.441406 -11.816406 16.671875 -11.253906 16.671875 -10.578125 C 16.671875 -9.984375 16.519531 -9.46875 16.21875 -9.03125 C 15.925781 -8.59375 15.535156 -8.25 15.046875 -8 C 14.566406 -7.757812 14.050781 -7.632812 13.5 -7.625 C 12.625 -7.59375 11.800781 -7.679688 11.03125 -7.890625 C 10.257812 -8.109375 9.519531 -8.363281 8.8125 -8.65625 C 8.113281 -8.945312 7.40625 -9.207031 6.6875 -9.4375 C 5.976562 -9.664062 5.234375 -9.78125 4.453125 -9.78125 C 3.390625 -9.78125 2.609375 -9.601562 2.109375 -9.25 C 1.617188 -8.90625 1.375 -8.425781 1.375 -7.8125 C 1.375 -6.9375 1.664062 -6.203125 2.25 -5.609375 C 2.84375 -5.015625 3.632812 -4.539062 4.625 -4.1875 C 5.625 -3.84375 6.75 -3.59375 8 -3.4375 C 9.25 -3.289062 10.539062 -3.21875 11.875 -3.21875 C 12.875 -3.21875 13.859375 -3.300781 14.828125 -3.46875 C 15.796875 -3.632812 16.6875 -4.054688 17.5 -4.734375 L 16.078125 -0.59375 C 15.441406 -0.289062 14.800781 -0.078125 14.15625 0.046875 C 13.507812 0.171875 12.785156 0.234375 11.984375 0.234375 C 10.546875 0.234375 9.164062 0.0859375 7.84375 -0.203125 C 6.519531 -0.492188 5.34375 -0.960938 4.3125 -1.609375 C 3.28125 -2.253906 2.460938 -3.097656 1.859375 -4.140625 C 1.253906 -5.191406 0.953125 -6.476562 0.953125 -8 Z M 0.953125 -8 "/></g></g></g><g fill="#ffffff" fill-opacity="1"><g transform="translate(150.197352, 205.864894)"><g><path d="M 4.5625 -3.640625 L 2.78125 -3.640625 L 2.78125 -0.90625 L 3.828125 -0.90625 L 3.828125 0 L 0.765625 0 L 0.765625 -0.90625 L 1.765625 -0.90625 L 1.765625 -3.640625 L 0.765625 -3.640625 L 0.765625 -4.5625 L 1.765625 -4.5625 C 1.765625 -5.1875 1.957031 -5.660156 2.34375 -5.984375 C 2.726562 -6.316406 3.25 -6.484375 3.90625 -6.484375 C 4 -6.484375 4.101562 -6.476562 4.21875 -6.46875 C 4.332031 -6.457031 4.445312 -6.445312 4.5625 -6.4375 L 4.5625 -5.546875 C 4.363281 -5.566406 4.1875 -5.578125 4.03125 -5.578125 C 3.769531 -5.578125 3.554688 -5.554688 3.390625 -5.515625 C 3.234375 -5.484375 3.109375 -5.425781 3.015625 -5.34375 C 2.929688 -5.257812 2.867188 -5.148438 2.828125 -5.015625 C 2.796875 -4.890625 2.78125 -4.738281 2.78125 -4.5625 L 4.5625 -4.5625 Z M 4.5625 -3.640625 "/></g></g></g><g fill="#ffffff" fill-opacity="1"><g transform="translate(156.218099, 205.864894)"><g><path d="M 3.828125 0 L 0.765625 0 L 0.765625 -0.90625 L 1.765625 -0.90625 L 1.765625 -5.46875 L 0.765625 -5.46875 L 0.765625 -6.375 L 2.78125 -6.375 L 2.78125 -0.90625 L 3.828125 -0.90625 Z M 3.828125 0 "/></g></g></g><g fill="#ffffff" fill-opacity="1"><g transform="translate(162.238845, 205.864894)"><g><path d="M 4.671875 -2.28125 C 4.671875 -1.914062 4.613281 -1.585938 4.5 -1.296875 C 4.394531 -1.015625 4.234375 -0.765625 4.015625 -0.546875 C 3.804688 -0.335938 3.554688 -0.175781 3.265625 -0.0625 C 2.972656 0.0507812 2.644531 0.109375 2.28125 0.109375 C 1.925781 0.109375 1.601562 0.0507812 1.3125 -0.0625 C 1.019531 -0.175781 0.765625 -0.335938 0.546875 -0.546875 C 0.335938 -0.765625 0.175781 -1.015625 0.0625 -1.296875 C -0.0390625 -1.585938 -0.09375 -1.914062 -0.09375 -2.28125 C -0.09375 -2.625 -0.0390625 -2.941406 0.0625 -3.234375 C 0.175781 -3.523438 0.335938 -3.773438 0.546875 -3.984375 C 0.765625 -4.203125 1.019531 -4.367188 1.3125 -4.484375 C 1.601562 -4.609375 1.925781 -4.671875 2.28125 -4.671875 C 2.644531 -4.671875 2.972656 -4.609375 3.265625 -4.484375 C 3.554688 -4.367188 3.804688 -4.203125 4.015625 -3.984375 C 4.234375 -3.773438 4.394531 -3.523438 4.5 -3.234375 C 4.613281 -2.941406 4.671875 -2.625 4.671875 -2.28125 Z M 3.671875 -2.28125 C 3.671875 -2.476562 3.640625 -2.671875 3.578125 -2.859375 C 3.515625 -3.046875 3.421875 -3.203125 3.296875 -3.328125 C 3.171875 -3.460938 3.023438 -3.566406 2.859375 -3.640625 C 2.691406 -3.710938 2.5 -3.75 2.28125 -3.75 C 2.070312 -3.75 1.878906 -3.710938 1.703125 -3.640625 C 1.535156 -3.566406 1.390625 -3.460938 1.265625 -3.328125 C 1.148438 -3.203125 1.0625 -3.046875 1 -2.859375 C 0.9375 -2.671875 0.90625 -2.476562 0.90625 -2.28125 C 0.90625 -2.0625 0.9375 -1.863281 1 -1.6875 C 1.0625 -1.507812 1.148438 -1.351562 1.265625 -1.21875 C 1.390625 -1.082031 1.535156 -0.976562 1.703125 -0.90625 C 1.878906 -0.832031 2.070312 -0.796875 2.28125 -0.796875 C 2.5 -0.796875 2.691406 -0.832031 2.859375 -0.90625 C 3.023438 -0.976562 3.171875 -1.082031 3.296875 -1.21875 C 3.421875 -1.351562 3.515625 -1.507812 3.578125 -1.6875 C 3.640625 -1.863281 3.671875 -2.0625 3.671875 -2.28125 Z M 3.671875 -2.28125 "/></g></g></g><g fill="#ffffff" fill-opacity="1"><g transform="translate(168.259591, 205.864894)"><g><path d="M 4.453125 -3.484375 C 4.328125 -3.535156 4.203125 -3.578125 4.078125 -3.609375 C 3.953125 -3.640625 3.804688 -3.65625 3.640625 -3.65625 C 3.421875 -3.65625 3.210938 -3.617188 3.015625 -3.546875 C 2.816406 -3.484375 2.644531 -3.382812 2.5 -3.25 C 2.351562 -3.125 2.238281 -2.957031 2.15625 -2.75 C 2.082031 -2.550781 2.046875 -2.316406 2.046875 -2.046875 L 2.046875 -0.90625 L 3.0625 -0.90625 L 3.0625 0 L 0 0 L 0 -0.90625 L 1.03125 -0.90625 L 1.03125 -3.640625 L 0 -3.640625 L 0 -4.5625 L 2.046875 -4.5625 L 2.046875 -3.40625 C 2.210938 -3.863281 2.457031 -4.1875 2.78125 -4.375 C 3.101562 -4.570312 3.488281 -4.671875 3.9375 -4.671875 C 4.070312 -4.671875 4.21875 -4.65625 4.375 -4.625 C 4.53125 -4.59375 4.679688 -4.539062 4.828125 -4.46875 Z M 4.453125 -3.484375 "/></g></g></g><g fill="#ffffff" fill-opacity="1"><g transform="translate(174.280338, 205.864894)"><g><path d="M -0.015625 -1.3125 C -0.015625 -1.582031 0.0507812 -1.816406 0.1875 -2.015625 C 0.332031 -2.210938 0.519531 -2.378906 0.75 -2.515625 C 0.988281 -2.648438 1.257812 -2.75 1.5625 -2.8125 C 1.863281 -2.882812 2.171875 -2.921875 2.484375 -2.921875 C 2.660156 -2.921875 2.804688 -2.914062 2.921875 -2.90625 C 3.046875 -2.894531 3.175781 -2.882812 3.3125 -2.875 L 3.3125 -3.0625 C 3.3125 -3.289062 3.21875 -3.460938 3.03125 -3.578125 C 2.84375 -3.703125 2.597656 -3.765625 2.296875 -3.765625 C 2.023438 -3.765625 1.75 -3.722656 1.46875 -3.640625 C 1.1875 -3.566406 0.914062 -3.457031 0.65625 -3.3125 L 0.25 -4.109375 C 0.550781 -4.273438 0.875 -4.410156 1.21875 -4.515625 C 1.5625 -4.617188 1.921875 -4.671875 2.296875 -4.671875 C 2.546875 -4.671875 2.789062 -4.640625 3.03125 -4.578125 C 3.269531 -4.523438 3.484375 -4.4375 3.671875 -4.3125 C 3.867188 -4.1875 4.023438 -4.019531 4.140625 -3.8125 C 4.253906 -3.601562 4.3125 -3.351562 4.3125 -3.0625 L 4.3125 0 L 3.3125 0 L 3.3125 -0.671875 C 3.144531 -0.421875 2.90625 -0.226562 2.59375 -0.09375 C 2.28125 0.0390625 1.945312 0.109375 1.59375 0.109375 C 1.375 0.109375 1.164062 0.078125 0.96875 0.015625 C 0.769531 -0.0351562 0.597656 -0.125 0.453125 -0.25 C 0.304688 -0.375 0.191406 -0.523438 0.109375 -0.703125 C 0.0234375 -0.878906 -0.015625 -1.082031 -0.015625 -1.3125 Z M 1.859375 -0.796875 C 2.054688 -0.796875 2.238281 -0.816406 2.40625 -0.859375 C 2.582031 -0.910156 2.738281 -0.984375 2.875 -1.078125 C 3.007812 -1.171875 3.113281 -1.28125 3.1875 -1.40625 C 3.269531 -1.53125 3.3125 -1.671875 3.3125 -1.828125 L 3.3125 -2 C 3.144531 -2.019531 2.988281 -2.03125 2.84375 -2.03125 C 2.707031 -2.039062 2.585938 -2.046875 2.484375 -2.046875 C 1.984375 -2.046875 1.609375 -1.976562 1.359375 -1.84375 C 1.109375 -1.71875 0.984375 -1.554688 0.984375 -1.359375 C 0.984375 -0.984375 1.273438 -0.796875 1.859375 -0.796875 Z M 1.859375 -0.796875 "/></g></g></g><g fill="#ffffff" fill-opacity="1"><g transform="translate(180.301085, 205.864894)"><g><path d="M 3.828125 0 L 0.765625 0 L 0.765625 -0.90625 L 1.765625 -0.90625 L 1.765625 -5.46875 L 0.765625 -5.46875 L 0.765625 -6.375 L 2.78125 -6.375 L 2.78125 -0.90625 L 3.828125 -0.90625 Z M 3.828125 0 "/></g></g></g><g fill="#ffffff" fill-opacity="1"><g transform="translate(186.321833, 205.864894)"><g/></g></g><g fill="#ffffff" fill-opacity="1"><g transform="translate(192.342581, 205.864894)"><g><path d="M 4.4375 -1.359375 C 4.4375 -1.066406 4.367188 -0.828125 4.234375 -0.640625 C 4.097656 -0.453125 3.925781 -0.300781 3.71875 -0.1875 C 3.507812 -0.0703125 3.273438 0.00390625 3.015625 0.046875 C 2.753906 0.0859375 2.5 0.109375 2.25 0.109375 C 1.84375 0.109375 1.429688 0.0507812 1.015625 -0.0625 C 0.609375 -0.1875 0.253906 -0.347656 -0.046875 -0.546875 L 0.375 -1.375 C 0.726562 -1.164062 1.050781 -1.015625 1.34375 -0.921875 C 1.644531 -0.835938 1.945312 -0.796875 2.25 -0.796875 C 2.65625 -0.796875 2.953125 -0.835938 3.140625 -0.921875 C 3.328125 -1.015625 3.421875 -1.140625 3.421875 -1.296875 C 3.421875 -1.367188 3.394531 -1.425781 3.34375 -1.46875 C 3.289062 -1.519531 3.203125 -1.566406 3.078125 -1.609375 C 2.960938 -1.648438 2.804688 -1.691406 2.609375 -1.734375 C 2.410156 -1.773438 2.164062 -1.816406 1.875 -1.859375 C 1.632812 -1.898438 1.410156 -1.945312 1.203125 -2 C 0.992188 -2.0625 0.804688 -2.144531 0.640625 -2.25 C 0.484375 -2.351562 0.359375 -2.484375 0.265625 -2.640625 C 0.171875 -2.804688 0.125 -3.007812 0.125 -3.25 C 0.125 -3.488281 0.1875 -3.695312 0.3125 -3.875 C 0.4375 -4.0625 0.597656 -4.210938 0.796875 -4.328125 C 1.003906 -4.453125 1.234375 -4.539062 1.484375 -4.59375 C 1.742188 -4.644531 2 -4.671875 2.25 -4.671875 C 2.613281 -4.671875 2.960938 -4.625 3.296875 -4.53125 C 3.640625 -4.4375 3.9375 -4.300781 4.1875 -4.125 L 3.78125 -3.34375 C 3.53125 -3.5 3.285156 -3.601562 3.046875 -3.65625 C 2.804688 -3.71875 2.539062 -3.75 2.25 -3.75 C 2.132812 -3.75 2.007812 -3.742188 1.875 -3.734375 C 1.75 -3.722656 1.628906 -3.695312 1.515625 -3.65625 C 1.398438 -3.625 1.304688 -3.570312 1.234375 -3.5 C 1.160156 -3.4375 1.125 -3.363281 1.125 -3.28125 C 1.125 -3.15625 1.226562 -3.050781 1.4375 -2.96875 C 1.65625 -2.894531 2.023438 -2.820312 2.546875 -2.75 C 2.828125 -2.707031 3.082031 -2.65625 3.3125 -2.59375 C 3.539062 -2.539062 3.738281 -2.460938 3.90625 -2.359375 C 4.070312 -2.253906 4.203125 -2.117188 4.296875 -1.953125 C 4.390625 -1.796875 4.4375 -1.597656 4.4375 -1.359375 Z M 4.4375 -1.359375 "/></g></g></g><g fill="#ffffff" fill-opacity="1"><g transform="translate(198.363329, 205.864894)"><g><path d="M 4.609375 -1.453125 C 4.554688 -0.972656 4.367188 -0.59375 4.046875 -0.3125 C 3.722656 -0.03125 3.316406 0.109375 2.828125 0.109375 C 2.554688 0.109375 2.3125 0.0664062 2.09375 -0.015625 C 1.875 -0.109375 1.6875 -0.234375 1.53125 -0.390625 C 1.375 -0.546875 1.25 -0.734375 1.15625 -0.953125 C 1.070312 -1.171875 1.03125 -1.410156 1.03125 -1.671875 L 1.03125 -3.640625 L 0 -3.640625 L 0 -4.5625 L 1.03125 -4.5625 L 1.03125 -6.375 L 2.046875 -6.375 L 2.046875 -4.5625 L 3.953125 -4.5625 L 3.953125 -3.640625 L 2.046875 -3.640625 L 2.046875 -1.671875 C 2.046875 -1.378906 2.113281 -1.160156 2.25 -1.015625 C 2.394531 -0.867188 2.585938 -0.796875 2.828125 -0.796875 C 3.109375 -0.796875 3.316406 -0.878906 3.453125 -1.046875 C 3.597656 -1.210938 3.6875 -1.414062 3.71875 -1.65625 Z M 4.609375 -1.453125 "/></g></g></g><g fill="#ffffff" fill-opacity="1"><g transform="translate(204.384076, 205.864894)"><g><path d="M 0.234375 -4.5625 L 1.25 -4.5625 L 1.25 -1.734375 C 1.25 -1.390625 1.316406 -1.144531 1.453125 -1 C 1.585938 -0.863281 1.78125 -0.796875 2.03125 -0.796875 C 2.40625 -0.796875 2.710938 -0.945312 2.953125 -1.25 C 3.191406 -1.5625 3.3125 -1.984375 3.3125 -2.515625 L 3.3125 -4.5625 L 4.3125 -4.5625 L 4.3125 0 L 3.3125 0 L 3.3125 -1.140625 C 3.207031 -0.742188 3.015625 -0.4375 2.734375 -0.21875 C 2.460938 0 2.128906 0.109375 1.734375 0.109375 C 1.265625 0.109375 0.894531 -0.0390625 0.625 -0.34375 C 0.363281 -0.644531 0.234375 -1.109375 0.234375 -1.734375 Z M 0.234375 -4.5625 "/></g></g></g><g fill="#ffffff" fill-opacity="1"><g transform="translate(210.404824, 205.864894)"><g><path d="M 4.3125 0 L 3.3125 0 L 3.3125 -0.421875 C 3.113281 -0.242188 2.914062 -0.109375 2.71875 -0.015625 C 2.519531 0.0664062 2.289062 0.109375 2.03125 0.109375 C 1.738281 0.109375 1.46875 0.0507812 1.21875 -0.0625 C 0.96875 -0.175781 0.75 -0.335938 0.5625 -0.546875 C 0.382812 -0.765625 0.242188 -1.019531 0.140625 -1.3125 C 0.0351562 -1.601562 -0.015625 -1.925781 -0.015625 -2.28125 C -0.015625 -2.625 0.0351562 -2.941406 0.140625 -3.234375 C 0.242188 -3.523438 0.382812 -3.773438 0.5625 -3.984375 C 0.75 -4.203125 0.96875 -4.367188 1.21875 -4.484375 C 1.46875 -4.609375 1.738281 -4.671875 2.03125 -4.671875 C 2.289062 -4.671875 2.519531 -4.625 2.71875 -4.53125 C 2.914062 -4.445312 3.113281 -4.316406 3.3125 -4.140625 L 3.3125 -5.46875 L 2.421875 -5.46875 L 2.421875 -6.375 L 4.3125 -6.375 Z M 3.3125 -3.34375 C 3.1875 -3.476562 3.023438 -3.578125 2.828125 -3.640625 C 2.640625 -3.710938 2.460938 -3.75 2.296875 -3.75 C 1.910156 -3.75 1.597656 -3.613281 1.359375 -3.34375 C 1.117188 -3.070312 1 -2.71875 1 -2.28125 C 1 -1.832031 1.117188 -1.472656 1.359375 -1.203125 C 1.597656 -0.929688 1.910156 -0.796875 2.296875 -0.796875 C 2.460938 -0.796875 2.640625 -0.832031 2.828125 -0.90625 C 3.023438 -0.976562 3.1875 -1.082031 3.3125 -1.21875 Z M 3.3125 -3.34375 "/></g></g></g><g fill="#ffffff" fill-opacity="1"><g transform="translate(216.425572, 205.864894)"><g><path d="M 2.890625 -5.15625 L 1.65625 -5.15625 L 1.65625 -6.375 L 2.890625 -6.375 Z M 3.828125 0 L 0.765625 0 L 0.765625 -0.90625 L 1.765625 -0.90625 L 1.765625 -3.640625 L 0.765625 -3.640625 L 0.765625 -4.5625 L 2.78125 -4.5625 L 2.78125 -0.90625 L 3.828125 -0.90625 Z M 3.828125 0 "/></g></g></g><g fill="#ffffff" fill-opacity="1"><g transform="translate(222.44632, 205.864894)"><g><path d="M 4.671875 -2.28125 C 4.671875 -1.914062 4.613281 -1.585938 4.5 -1.296875 C 4.394531 -1.015625 4.234375 -0.765625 4.015625 -0.546875 C 3.804688 -0.335938 3.554688 -0.175781 3.265625 -0.0625 C 2.972656 0.0507812 2.644531 0.109375 2.28125 0.109375 C 1.925781 0.109375 1.601562 0.0507812 1.3125 -0.0625 C 1.019531 -0.175781 0.765625 -0.335938 0.546875 -0.546875 C 0.335938 -0.765625 0.175781 -1.015625 0.0625 -1.296875 C -0.0390625 -1.585938 -0.09375 -1.914062 -0.09375 -2.28125 C -0.09375 -2.625 -0.0390625 -2.941406 0.0625 -3.234375 C 0.175781 -3.523438 0.335938 -3.773438 0.546875 -3.984375 C 0.765625 -4.203125 1.019531 -4.367188 1.3125 -4.484375 C 1.601562 -4.609375 1.925781 -4.671875 2.28125 -4.671875 C 2.644531 -4.671875 2.972656 -4.609375 3.265625 -4.484375 C 3.554688 -4.367188 3.804688 -4.203125 4.015625 -3.984375 C 4.234375 -3.773438 4.394531 -3.523438 4.5 -3.234375 C 4.613281 -2.941406 4.671875 -2.625 4.671875 -2.28125 Z M 3.671875 -2.28125 C 3.671875 -2.476562 3.640625 -2.671875 3.578125 -2.859375 C 3.515625 -3.046875 3.421875 -3.203125 3.296875 -3.328125 C 3.171875 -3.460938 3.023438 -3.566406 2.859375 -3.640625 C 2.691406 -3.710938 2.5 -3.75 2.28125 -3.75 C 2.070312 -3.75 1.878906 -3.710938 1.703125 -3.640625 C 1.535156 -3.566406 1.390625 -3.460938 1.265625 -3.328125 C 1.148438 -3.203125 1.0625 -3.046875 1 -2.859375 C 0.9375 -2.671875 0.90625 -2.476562 0.90625 -2.28125 C 0.90625 -2.0625 0.9375 -1.863281 1 -1.6875 C 1.0625 -1.507812 1.148438 -1.351562 1.265625 -1.21875 C 1.390625 -1.082031 1.535156 -0.976562 1.703125 -0.90625 C 1.878906 -0.832031 2.070312 -0.796875 2.28125 -0.796875 C 2.5 -0.796875 2.691406 -0.832031 2.859375 -0.90625 C 3.023438 -0.976562 3.171875 -1.082031 3.296875 -1.21875 C 3.421875 -1.351562 3.515625 -1.507812 3.578125 -1.6875 C 3.640625 -1.863281 3.671875 -2.0625 3.671875 -2.28125 Z M 3.671875 -2.28125 "/></g></g></g></svg>